<svg clip-rule="evenodd" fill-rule="evenodd" stroke-linejoin="round" stroke-miterlimit="2" viewBox="0 0 560 400" xmlns="http://www.w3.org/2000/svg"><g fill-rule="nonzero"><path d="m0 0c-47.329 0-85.833-38.505-85.833-85.834v-134.909h31.767l-.009 134.909c0 29.813 24.26 54.072 54.075 54.072 29.812 0 54.077-24.259 54.077-54.072 0-28.754-22.567-52.337-50.914-53.98v-31.794c45.866 1.667 82.667 39.505 82.667 85.774 0 47.329-38.502 85.834-85.83 85.834" fill="#683034" transform="matrix(.296975 0 0 -.296975 293.665304625 126.557091575)"/><path d="m0 0c47.33 0 85.834 38.506 85.834 85.83v134.787l-31.758.009.006-134.796c0-29.814-24.263-54.066-54.082-54.066-29.809 0-54.07 24.252-54.07 54.066 0 28.757 22.564 52.341 50.91 53.982v31.797c-45.863-1.67-82.665-39.507-82.665-85.779 0-47.324 38.503-85.83 85.825-85.83" fill="#683034" transform="matrix(.296975 0 0 -.296975 265.49871075 215.71641095)"/><path d="m0 0h-35.608v60.632h36.431c23.258 0 38.695-10.236 38.695-30.118 0-18.308-15.643-30.514-39.518-30.514m2.058 75.005h-53.927v-137.802h16.261v48.625h34.99c30.667 0 56.602 15.355 56.602 45.277 0 27.363-21.406 43.9-53.926 43.9" transform="matrix(.296975 0 0 -.296975 115.4037741675 254.092411375)"/><path d="m0 0c-32.932 0-56.807 25.591-56.807 57.09 0 31.496 23.463 56.693 56.395 56.693s56.808-25.591 56.808-57.087c0-31.498-23.464-56.696-56.396-56.696m0 128.156c-43.84 0-73.686-33.269-73.686-71.46 0-38.189 29.434-71.066 73.274-71.066 43.841 0 73.685 33.27 73.685 71.46s-29.432 71.066-73.273 71.066" transform="matrix(.296975 0 0 -.296975 160.815320225 269.17547465)"/><path d="m0 0c-31.697 6.496-39.106 13.781-39.106 26.972 0 12.598 11.938 22.438 30.668 22.438 14.819 0 28.197-4.526 41.577-14.961l9.467 12.011c-14.613 11.221-29.639 16.928-50.633 16.928-27.374 0-47.34-15.748-47.34-37.797 0-22.836 15.231-33.072 48.37-39.961 30.256-6.104 37.46-13.386 37.46-26.378 0-13.977-12.762-23.625-32.109-23.625-19.964 0-34.373 6.496-49.398 19.488l-10.085-11.416c17.289-14.763 36.019-22.049 58.865-22.049 28.61 0 49.193 15.355 49.193 39.175 0 21.262-14.82 32.484-46.929 39.175" transform="matrix(.296975 0 0 -.296975 207.8220081 250.058302975)"/><path d="m0 0h-83.153v61.224h-16.261v-137.802h16.261v62.011h83.153v-62.011h16.261v137.802h-16.261z" transform="matrix(.296975 0 0 -.296975 261.119220425 249.999501925)"/><path d="m0 0-52.484 75.2h-16.466v-137.802h15.848v111.422l52.485-73.625h.824l52.484 73.823v-111.62h16.261v137.802h-16.465z" transform="matrix(.296975 0 0 -.296975 298.522627725 254.1503215)"/><path d="m0 0 32.932 70.276 32.725-70.276zm25.521 88.39-65.657-138.786h16.671l17.082 36.418h78.419l16.879-36.418h17.495l-65.66 138.786z" transform="matrix(.296975 0 0 -.296975 339.349562825 257.774901375)"/><path d="m0 0v55.907h44.459c23.258 0 36.841-10.236 36.841-27.362 0-17.912-15.436-28.545-37.048-28.545zm97.768 29.137c0 24.804-20.377 41.143-52.077 41.143h-61.952v-137.801h16.261v53.544h41.164l41.782-53.544h19.966l-44.252 56.3c22.64 3.939 39.108 17.325 39.108 40.358" transform="matrix(.296975 0 0 -.296975 384.210012375 252.6892045)"/><path d="m0 0 61.747 60.238h-20.994l-82.742-82.287v82.287h-16.261v-137.801h16.261v37.01l30.669 29.725 55.365-66.735h20.377z" transform="matrix(.296975 0 0 -.296975 440.86838775 249.70698155)"/></g></svg>