<?xml version="1.0" encoding="utf-8"?>
<!-- Generator: Adobe Illustrator 28.0.0, SVG Export Plug-In . SVG Version: 6.00 Build 0)  -->
<svg version="1.1" id="Слой_1" xmlns="http://www.w3.org/2000/svg" xmlns:xlink="http://www.w3.org/1999/xlink" x="0px" y="0px"
	 viewBox="0 0 1000 176" style="enable-background:new 0 0 1000 176;" xml:space="preserve">
<style type="text/css">
	.st0{fill:#020A0A;}
</style>
<g id="Layer_2">
	<g id="logo">
		<path class="st0" d="M356.3,176c-36.3,0-69.9-10.8-92.3-30.9c-16.2-14.6-25.4-35.4-25.1-57.2c-0.1-21.7,9.1-42.4,25.1-57
			C284.8,12,321.6,0,356.3,0c38.3,0,69,9.7,92.5,30.9c16,14.6,25,35.3,24.8,56.9c-0.1,21.6-9.1,42.3-24.8,57.2
			C426.9,165.3,392.6,176,356.3,176v-23.2c19.2,0,37.1-6.6,49.5-19s18.1-27.4,18.1-46c0-17.7-6.2-34.3-18.1-46
			c-12.3-12.1-30.6-18.9-49.5-18.9s-37.3,6.8-49.6,18.9c-11.9,11.7-18,28.4-18,46c-0.4,17.1,6.1,33.7,18,46
			c12.3,12.3,30.5,19,49.6,19V176z M91.5,0c-19.4,0-41.4,3.6-60,12C14.1,19.8,0,32.2,0,52.9C0,63.7,4.1,74.1,11.5,82
			c5,4.6,13.1,12.5,34.3,17.2c9.5,2,29.7,5.2,49.8,7.3s39.7,4,47.7,6.1c6.4,1.6,17.1,3.8,17.1,15.8s-11.3,15.6-13.2,16.4
			s-15.5,7-39.8,7c-16.1-0.4-32-3.2-47.3-8.1c-9.1-3.2-18.6-7.5-27.4-18.3c-3.6-5.1-5.6-11.1-5.7-17.4h-22v61.6h24.4v-8.3
			c0-1.9,1.5-3.5,3.5-3.5c0.6,0,1.3,0.2,1.8,0.5c11.5,5,23.5,8.9,35.8,11.6c12.8,2.7,21.1,4.6,37.1,4.6c16.8,0.3,33.6-2,49.7-7
			c10.7-2.9,20.7-7.9,29.5-14.6c10.1-7.7,15.9-19.7,15.8-32.4c0.1-11.9-4.5-23.3-12.8-31.9c-4.6-4.5-9.9-8.1-15.8-10.8
			c-6.3-2.8-12.8-5.1-19.4-6.8c-12.7-3.1-41.2-7-54.8-8.3c-14.3-1.5-39.1-3.5-49-6.6c-3-0.9-9.1-3.8-9.1-10.9
			c0-5.1,2.8-9.3,8.3-12.8c8.8-5.5,26.5-8.9,45-8.9c17.9-0.2,35.6,3.2,52.1,10.2c4.4,1.9,8.6,4.4,12.4,7.4
			c6.2,5.3,10.5,12.5,12.2,20.4h19.7V7.8h-22V14c0,2-2,4.6-6,2.5C153.6,11.3,125.7,0.1,91.5,0z M574.5,9.8l107.5,97l-1.1-65.3
			c-0.1-8.6-1.7-12.2-11-12.2h-20.2V9.8h92v19.5H722c-9.4,0-10,3-10.2,12.2l1.7,124.8H682L558.1,55.8v78.4
			c0.1,8.5,0.5,12.6,9.3,12.6h22v19.5h-90.2v-19.5h21.1c7.9,0,7.6-7.5,7.6-13V42.3c0-6-0.8-12.9-13.2-12.9h-17.1V9.8H574.5z
			 M846.7,146.8c1.8,0,3.6-0.1,5.4-0.3c1.9-0.6,3.4-1.9,4.2-3.8c0.3-1.4,0.4-2.8,0.4-4.2v-30.9c0-1,0-1.1-1.3-2.7
			s-56.3-64-58.8-66.8c-3.1-3.4-8.6-8.7-16.9-8.7h-19.1V9.8h107.8v19.5h-13c-3,0-5,2.9-2.4,6c0,0,36.3,43.4,36.6,43.9
			s0.6,0.6,1.1,0.1s37.2-43.6,37.5-44c1.3-1.6,0.9-4-0.7-5.2c-0.7-0.5-1.6-0.8-2.5-0.8h-13.3V9.8h88.4v19.6h-19.7
			c-7.2,0-10,1.3-15.5,7.4l-59.5,67.9c-0.6,0.8-0.8,1.9-0.7,2.9v30.9c0,1.4,0.2,2.8,0.4,4.2c0.8,1.8,2.3,3.2,4.2,3.8
			c1.8,0.2,3.6,0.4,5.4,0.3h20.2v19.6H827.6v-19.6L846.7,146.8z"/>
	</g>
</g>
<script  id="globalVarsDetection" src="chrome-extension://cmkdbmfndkfgebldhnkbfhlneefdaaip/js/wrs_env.js" xmlns=""></script>
</svg>
